<svg xmlns="http://www.w3.org/2000/svg" viewBox="0 0 280 280" fill="none" shape-rendering="auto"><metadata xmlns:rdf="http://www.w3.org/1999/02/22-rdf-syntax-ns#" xmlns:xsi="http://www.w3.org/2001/XMLSchema-instance" xmlns:dc="http://purl.org/dc/elements/1.1/" xmlns:dcterms="http://purl.org/dc/terms/"><rdf:RDF><rdf:Description><dc:title>Avataaars</dc:title><dc:creator>Pablo Stanley</dc:creator><dc:source xsi:type="dcterms:URI">https://avataaars.com/</dc:source><dcterms:license xsi:type="dcterms:URI">https://avataaars.com/</dcterms:license><dc:rights>Remix of „Avataaars” (https://avataaars.com/) by „Pablo Stanley”, licensed under „Free for personal and commercial use” (https://avataaars.com/)</dc:rights></rdf:Description></rdf:RDF></metadata><mask id="viewboxMask"><rect width="280" height="280" rx="0" ry="0" x="0" y="0" fill="#fff" /></mask><g mask="url(#viewboxMask)"><g transform="translate(8)"><path d="M132 36a56 56 0 0 0-56 56v6.17A12 12 0 0 0 66 110v14a12 12 0 0 0 10.3 11.88 56.04 56.04 0 0 0 31.7 44.73v18.4h-4a72 72 0 0 0-72 72v9h200v-9a72 72 0 0 0-72-72h-4v-18.39a56.04 56.04 0 0 0 31.7-44.73A12 12 0 0 0 198 124v-14a12 12 0 0 0-10-11.83V92a56 56 0 0 0-56-56Z" fill="#f8d25c"/><path d="M108 180.61v8a55.79 55.79 0 0 0 24 5.39c8.59 0 16.73-1.93 24-5.39v-8a55.79 55.79 0 0 1-24 5.39 55.79 55.79 0 0 1-24-5.39Z" fill="#000" fill-opacity=".1"/><g transform="translate(0 170)"><path d="M108 14.7c-15.52 3.68-27.1 10.83-30.77 19.44A72.02 72.02 0 0 0 32 101v9h200v-9a72.02 72.02 0 0 0-45.23-66.86C183.1 25.53 171.52 18.38 156 14.7V32a24 24 0 1 1-48 0V14.7Z" fill="#b1e2ff"/><path d="M102 63.34a67.1 67.1 0 0 1-7-2.82V110h7V63.34ZM162 63.34a67.04 67.04 0 0 0 7-2.82V98.5a3.5 3.5 0 1 1-7 0V63.34Z" fill="#F4F4F4"/><path d="M187.62 34.49a71.79 71.79 0 0 1 10.83 5.63C197.11 55.62 167.87 68 132 68c30.93 0 56-13.43 56-30 0-1.19-.13-2.36-.38-3.51ZM76.38 34.49a16.48 16.48 0 0 0-.38 3.5c0 16.58 25.07 30 56 30-35.87 0-65.1-12.38-66.45-27.88a71.79 71.79 0 0 1 10.83-5.63Z" fill="#000" fill-opacity=".16"/></g><g transform="translate(78 134)"><path fill-rule="evenodd" clip-rule="evenodd" d="M29 15.6C30.41 25.24 41.06 33 54 33c12.97 0 23.65-7.82 25-18.26.1-.4-.22-1.74-2.17-1.74H31.17c-1.79 0-2.3 1.24-2.17 2.6Z" fill="#000" fill-opacity=".7"/><path d="M70 13H39a5 5 0 0 0 5 5h21a5 5 0 0 0 5-5Z" fill="#fff"/><path d="M43 23.5a1.88 1.88 0 0 0 0 .13v8.87a11.5 11.5 0 1 0 23 0v-8.87a1.62 1.62 0 0 0 0-.13c0-1.93-2.91-3.5-6.5-3.5-2.01 0-3.8.5-5 1.26a9.45 9.45 0 0 0-5-1.26c-3.59 0-6.5 1.57-6.5 3.5Z" fill="#FF4F6D"/></g><g transform="translate(104 122)"><path fill-rule="evenodd" clip-rule="evenodd" d="M16 8c0 4.42 5.37 8 12 8s12-3.58 12-8" fill="#000" fill-opacity=".16"/></g><g transform="translate(76 90)"><path d="M25 27s-6 7.27-6 11.27a6 6 0 1 0 12 0c0-4-6-11.27-6-11.27Z" fill="#92D9FF"/><path d="M36 22a6 6 0 1 1-12 0 6 6 0 0 1 12 0ZM88 22a6 6 0 1 1-12 0 6 6 0 0 1 12 0Z" fill="#000" fill-opacity=".6"/></g><g transform="translate(76 82)"><path d="M15.61 15.18c4.24-5.76 6.88-5.48 13.31-.62l.67.5C34.41 18.73 36.7 20 40 20a2 2 0 1 0 0-4c-2.07 0-3.9-1.02-7.99-4.12l-.68-.52C27.57 8.53 25.37 7.3 22.63 7c-3.68-.4-7.05 1.48-10.24 5.83a2 2 0 1 0 3.22 2.36ZM96.39 15.18c-4.24-5.76-6.88-5.48-13.31-.62l-.67.5C77.58 18.73 75.29 20 72 20a2 2 0 1 1 0-4c2.07 0 3.9-1.02 7.99-4.12l.68-.52c3.76-2.83 5.96-4.07 8.7-4.37 3.68-.4 7.05 1.48 10.24 5.83a2 2 0 1 1-3.22 2.36Z" fill="#000" fill-opacity=".6"/></g><g transform="translate(-1)"><path fill-rule="evenodd" clip-rule="evenodd" d="M88.18 37.86c5.14-3.84 11.22-7.12 17.56-8.38 6.45-1.28 10.36-1.6 16.7-.07 1.64.39 2.2.78 3.63-.15 1.2-.79 9.66-9.5 35.42-4.66 26.03 4.88 33.77 44.08 43.42 45.57 3.49.53 7.79-.39 7.92-2.53 3.96 6.03 5 14 3.33 21.07-1.45 6.09-4.5 11.8-10 15.14-4.72 2.87-11.25 4.12-16.71 3.59a22.36 22.36 0 0 1-7.03-1.77c-2.76-1.2-4.96-3.4-7.67-4.54a53.9 53.9 0 0 0 9.18 6.42c1.64.9 3.3 1.53 5.11 2.02 1.24.34 3.76 1.48 4.96 1.18-7.81 1.4-15.16.18-22.32-3.16a51.67 51.67 0 0 1-9.2-5.48c-2.83-2.13-6.09-4.3-8.3-7.1.93 1.2-.7-.6-.92-.81a74.07 74.07 0 0 1-4.72-5.29c-1.99-2.48-3.84-5.08-5.5-7.8-1.68-2.76-8.36-13.87-10.38-16.5a195.3 195.3 0 0 0 6.41 16.93c-4.71-1.47-9.28-5.54-12.3-9.34a29.46 29.46 0 0 1-6.1-14.66c-3.83 10.41-12.79 18.63-22.03 24.3 2-3.74 5.05-6.9 7.05-10.69-9.2 9.33-24.57 13.9-28.6 27.58-1.03-4.76-4.35-8.58-5.34-13.43-1.1-5.4-1.9-11.11-1.73-16.62.4-12.24 8.64-23.72 18.16-30.82Z" fill="#2c1b18"/></g><g transform="translate(49 72)"></g><g transform="translate(62 42)"><path fill-rule="evenodd" clip-rule="evenodd" d="M39.25 52c-21.13 0-28.63 5.17-29.32 5.86A2.93 2.93 0 0 0 7 60.79v2.92a2.93 2.93 0 0 0 2.93 2.93s5.87 0 5.87 2.93c0 .2 0 .34.03.45-.03.82-.04 1.65-.04 2.48C15.78 85.34 24.07 93 37.96 93h2.75c14.68 0 24.93-8.43 24.93-20.5 0-1.44-.04-2.88-.16-4.28l1.45-.73c.57-.28 1.2-.5 1.87-.64 1.85-.39 3.93-.23 5.95.28.73.18 1.25.36 1.5.46l1.25.5a50.58 50.58 0 0 0-.16 4.4c0 12.84 8.29 20.5 22.17 20.5h2.75c14.68 0 24.93-8.43 24.93-20.5 0-.83 0-1.66-.04-2.48.02-.11.03-.26.03-.45 0-2.93 5.87-2.93 5.87-2.93 1.62 0 2.93-1.3 2.93-2.93V60.8a2.93 2.93 0 0 0-2.93-2.93c-.69-.69-8.2-5.86-29.32-5.86h-2.93c-1.83 0-3.52.07-5.08.21-9.38.56-14.46 2.19-19.63 4.76-.54.2-2.38.79-4.53.88a16.56 16.56 0 0 1-4.77-.92l-.42-.2v-.01c-4.9-2.45-8.36-4.18-20.55-4.61-1.15-.07-2.37-.1-3.66-.1h-2.93Zm-1.12 5.86h1.12c2.44 0 4.59.03 6.48.1 14.05.84 14.05 6.95 14.05 14.54 0 8.62-7.84 14.64-19.06 14.64h-2.75c-13.5 0-16.32-7.96-16.32-14.64 0-8 0-14.37 16.48-14.64Zm26.11 4.36.1.03-.07.03-.03-.06Zm14.52 0-.07.03.04.02c0-.02 0-.03.02-.05Zm16.7-4.12a125.22 125.22 0 0 1 9.4-.24c16.49.27 16.49 6.63 16.49 14.64 0 8.62-7.84 14.64-19.07 14.64h-2.75c-13.48 0-16.31-7.96-16.31-14.64 0-7.25 0-13.15 12.24-14.4Z" fill="#000" fill-opacity=".1"/><path d="M40.72 88.07c13.74 0 22-7.87 22-17.57s-1.3-17.57-20.54-17.57h-2.93c-19.25 0-20.53 7.86-20.53 17.57 0 9.7 5.5 17.57 19.25 17.57h2.75Z" fill="#000" fill-opacity=".7"/><path d="M40.72 88.07c13.74 0 22-7.87 22-17.57s-1.3-17.57-20.54-17.57h-2.93c-19.25 0-20.53 7.86-20.53 17.57 0 9.7 5.5 17.57 19.25 17.57h2.75Z" fill="url(#accessoriesWayfarers-a)" style="mix-blend-mode:screen"/><path d="M102.28 88.07c13.75 0 22-7.87 22-17.57S123 52.93 103.75 52.93h-2.93c-19.25 0-20.53 7.86-20.53 17.57 0 9.7 5.5 17.57 19.24 17.57h2.75Z" fill="#000" fill-opacity=".7"/><path d="M102.28 88.07c13.75 0 22-7.87 22-17.57S123 52.93 103.75 52.93h-2.93c-19.25 0-20.53 7.86-20.53 17.57 0 9.7 5.5 17.57 19.24 17.57h2.75Z" fill="url(#accessoriesWayfarers-b)" style="mix-blend-mode:screen"/><path fill-rule="evenodd" clip-rule="evenodd" d="M39.25 50c-21.13 0-28.63 5.17-29.32 5.86A2.93 2.93 0 0 0 7 58.79v2.92a2.93 2.93 0 0 0 2.93 2.93s5.87 0 5.87 2.93c0 .2 0 .34.03.45-.03.82-.04 1.65-.04 2.48C15.78 83.34 24.07 91 37.96 91h2.75c14.68 0 24.93-8.43 24.93-20.5 0-1.44-.04-2.88-.16-4.28l1.45-.73c.57-.28 1.2-.5 1.87-.64 1.85-.39 3.93-.23 5.95.28.73.18 1.25.36 1.5.46l1.25.5a50.58 50.58 0 0 0-.16 4.4c0 12.84 8.29 20.5 22.17 20.5h2.75c14.68 0 24.93-8.43 24.93-20.5 0-.83 0-1.66-.04-2.48.02-.11.03-.26.03-.45 0-2.93 5.87-2.93 5.87-2.93 1.62 0 2.93-1.3 2.93-2.93V58.8a2.93 2.93 0 0 0-2.93-2.93c-.69-.69-8.2-5.86-29.32-5.86h-2.93c-1.83 0-3.52.07-5.08.21-9.38.56-14.46 2.19-19.63 4.76-.54.2-2.38.79-4.53.88a16.56 16.56 0 0 1-4.77-.92l-.42-.2v-.01c-4.9-2.45-8.36-4.18-20.55-4.61-1.15-.07-2.37-.1-3.66-.1h-2.93Zm-1.12 5.86h1.12c2.44 0 4.59.03 6.48.1 14.05.84 14.05 6.95 14.05 14.54 0 8.62-7.84 14.64-19.06 14.64h-2.75c-13.5 0-16.32-7.96-16.32-14.64 0-8 0-14.37 16.48-14.64Zm26.11 4.36.1.03-.07.03-.03-.06Zm14.52 0-.07.03.04.02c0-.02 0-.03.02-.05Zm16.7-4.12a125.22 125.22 0 0 1 9.4-.24c16.49.27 16.49 6.63 16.49 14.64 0 8.62-7.84 14.64-19.07 14.64h-2.75c-13.48 0-16.31-7.96-16.31-14.64 0-7.25 0-13.15 12.24-14.4Z" fill="#e6e6e6"/><defs><linearGradient id="accessoriesWayfarers-a" x1="80.29" y1="52.93" x2="80.29" y2="88.07" gradientUnits="userSpaceOnUse"><stop stop-color="#fff" stop-opacity=".5"/><stop offset=".71" stop-opacity=".5"/></linearGradient><linearGradient id="accessoriesWayfarers-b" x1="80.29" y1="52.93" x2="80.29" y2="88.07" gradientUnits="userSpaceOnUse"><stop stop-color="#fff" stop-opacity=".5"/><stop offset=".71" stop-opacity=".5"/></linearGradient></defs></g></g></g></svg>