<svg xmlns="http://www.w3.org/2000/svg" viewBox="0 0 280 280" fill="none" shape-rendering="auto"><metadata xmlns:rdf="http://www.w3.org/1999/02/22-rdf-syntax-ns#" xmlns:xsi="http://www.w3.org/2001/XMLSchema-instance" xmlns:dc="http://purl.org/dc/elements/1.1/" xmlns:dcterms="http://purl.org/dc/terms/"><rdf:RDF><rdf:Description><dc:title>Avataaars</dc:title><dc:creator>Pablo Stanley</dc:creator><dc:source xsi:type="dcterms:URI">https://avataaars.com/</dc:source><dcterms:license xsi:type="dcterms:URI">https://avataaars.com/</dcterms:license><dc:rights>Remix of „Avataaars” (https://avataaars.com/) by „Pablo Stanley”, licensed under „Free for personal and commercial use” (https://avataaars.com/)</dc:rights></rdf:Description></rdf:RDF></metadata><mask id="viewboxMask"><rect width="280" height="280" rx="0" ry="0" x="0" y="0" fill="#fff" /></mask><g mask="url(#viewboxMask)"><g transform="translate(8)"><path d="M132 36a56 56 0 0 0-56 56v6.17A12 12 0 0 0 66 110v14a12 12 0 0 0 10.3 11.88 56.04 56.04 0 0 0 31.7 44.73v18.4h-4a72 72 0 0 0-72 72v9h200v-9a72 72 0 0 0-72-72h-4v-18.39a56.04 56.04 0 0 0 31.7-44.73A12 12 0 0 0 198 124v-14a12 12 0 0 0-10-11.83V92a56 56 0 0 0-56-56Z" fill="#614335"/><path d="M108 180.61v8a55.79 55.79 0 0 0 24 5.39c8.59 0 16.73-1.93 24-5.39v-8a55.79 55.79 0 0 1-24 5.39 55.79 55.79 0 0 1-24-5.39Z" fill="#000" fill-opacity=".1"/><g transform="translate(0 170)"><path d="M132.5 65.83c27.34 0 49.5-13.2 49.5-29.48 0-1.37-.16-2.7-.46-4.02A72.03 72.03 0 0 1 232 101.05V110H32v-8.95A72.03 72.03 0 0 1 83.53 32a18 18 0 0 0-.53 4.35c0 16.28 22.16 29.48 49.5 29.48Z" fill="#b1e2ff"/></g><g transform="translate(78 134)"><rect x="22" y="7" width="64" height="26" rx="13" fill="#000" fill-opacity=".6"/><rect x="24" y="9" width="60" height="22" rx="11" fill="#fff"/><path d="M24.18 18H32V9.41A11 11 0 0 1 35 9h1v9h9V9h4v9h9V9h4v9h9V9h2c.68 0 1.35.06 2 .18V18h8.82l.05.28v3.44l-.05.28H75v8.82c-.65.12-1.32.18-2 .18h-2v-9h-9v9h-4v-9h-9v9h-4v-9h-9v9h-1a11 11 0 0 1-3-.41V22h-7.82a11.06 11.06 0 0 1 0-4Z" fill="#E6E6E6"/></g><g transform="translate(104 122)"><path fill-rule="evenodd" clip-rule="evenodd" d="M16 8c0 4.42 5.37 8 12 8s12-3.58 12-8" fill="#000" fill-opacity=".16"/></g><g transform="translate(76 90)"><path d="M36 22a6 6 0 1 1-12 0 6 6 0 0 1 12 0ZM88 22a6 6 0 1 1-12 0 6 6 0 0 1 12 0Z" fill="#000" fill-opacity=".6"/></g><g transform="translate(76 82)"><path d="M15.6 14.16c4.49-6.32 14-9.5 23.75-6.36a2 2 0 1 0 1.23-3.81c-11.41-3.68-22.74.1-28.25 7.85a2 2 0 1 0 3.26 2.32ZM96.38 21.16c-3.92-5.51-14.65-8.6-23.9-6.33a2 2 0 0 1-.95-3.88c10.74-2.64 23.17.94 28.1 7.9a2 2 0 1 1-3.25 2.3Z" fill="#000" fill-opacity=".6"/></g><g transform="translate(-1)"><path fill-rule="evenodd" clip-rule="evenodd" d="M69.03 76.21C81.97 43.13 95.65 26.6 110.06 26.6c.54 0 29.25-.24 48.05-.36C178.77 35.59 193 55.3 193 78.1V93h-82.94l-2.8-23.18L103.36 93H69V78.11c0-.63.01-1.27.03-1.9Z" fill="#000" fill-opacity=".16"/><path d="M40 145c-.09-18.98 30.32-97.2 41-110 7.92-9.5 27.7-15.45 52-15 24.3.45 44.86 3.81 53 14 12.32 15.43 40.09 92.02 40 111-.1 21.27-9.62 33.59-18.6 45.22A293.1 293.1 0 0 0 203 196c-10.28-2.66-27.85-5.18-46-6.68v-8.7A56 56 0 0 0 189 130V92c0-1.34-.05-2.68-.14-4h-76.8l-2.8-21.44L105.36 88H77.14c-.1 1.32-.14 2.66-.14 4v38a56 56 0 0 0 32 50.61v8.7c-18.15 1.5-35.72 4.03-46 6.69-1.42-1.93-2.9-3.84-4.39-5.78C49.62 178.6 40.1 166.27 40 145Z" fill="#b58143"/></g><g transform="translate(49 72)"><path fill-rule="evenodd" clip-rule="evenodd" d="M84.5 93.84c-11.5.38-16.64 5.88-20.5.29-2.91-4.2-1.7-11.26 1.01-15.23 3.86-5.65 9.1-2.92 14.95-3.56 1.6-.18 3.2-.62 4.54-1.34 1.36.72 2.95 1.16 4.55 1.34 5.85.64 11.09-2.09 14.94 3.56 2.72 3.97 3.93 11.03 1.03 15.23-3.87 5.6-9-.67-20.52-.29ZM140.4 26c-3.43 14.07-5 28.43-7.5 42.67-.5 2.97-1.07 5.93-1.68 8.88-.12.62-.25 2.92-.86 3.21-1.85.89-5.62-3.81-6.63-4.87-2.53-2.67-5.05-5.36-8.13-7.45a43.7 43.7 0 0 0-21.13-7.32c-3.18-.25-7.47.18-10.47 2-3-1.82-7.3-2.25-10.47-2-7.6.6-14.9 3.1-21.13 7.32-3.09 2.09-5.6 4.78-8.13 7.45-1 1.06-4.78 5.76-6.63 4.87-.61-.29-.74-2.6-.86-3.21-.6-2.95-1.17-5.91-1.7-8.88-2.47-14.24-4.05-28.6-7.47-42.67-1 0-1.87 18.75-1.98 20.5-.46 7.09-.98 14.03-.3 21.13 1.16 12.24 2.37 27.6 11.7 36.96 8.44 8.45 20.68 10.22 31.24 15.55 1.36.69 3.16 1.54 5.1 2.23 2.06 1.56 6.12 2.63 10.8 2.63 4.91 0 9.15-1.17 11.08-2.86 1.7-.65 3.27-1.39 4.48-2 10.56-5.33 22.8-7.1 31.24-15.55 9.33-9.36 10.54-24.72 11.7-36.96.68-7.1.16-14.04-.3-21.14-.1-1.74-.98-20.5-1.98-20.5Z" fill="#2c1b18"/></g><g transform="translate(62 42)"><g fill-rule="evenodd" clip-rule="evenodd"><path d="M40 96a24 24 0 0 1-22.96-31H10.5a2.5 2.5 0 0 1 0-5h8c.23 0 .45.03.66.09a24 24 0 0 1 42.26 1.06A11.36 11.36 0 0 1 70.86 56c4.01 0 7.55 2.14 9.6 5.4a24 24 0 0 1 42.38-1.31c.2-.06.43-.1.66-.1h8a2.5 2.5 0 1 1 0 5h-6.54a24 24 0 1 1-46.6 2.83c-.08-4.37-3.45-7.83-7.5-7.83-3.73 0-6.89 2.94-7.42 6.83A24 24 0 0 1 40 96Zm0-4a20 20 0 1 0 0-40 20 20 0 0 0 0 40Zm82-20a20 20 0 1 1-40 0 20 20 0 0 1 40 0Z" fill="#000" fill-opacity=".1"/><path d="M40 94a24 24 0 0 1-22.96-31H10.5a2.5 2.5 0 0 1 0-5h8c.23 0 .45.03.66.09a24 24 0 0 1 42.26 1.06A11.36 11.36 0 0 1 70.86 54c4.01 0 7.55 2.14 9.6 5.4a24 24 0 0 1 42.38-1.31c.2-.06.43-.1.66-.1h8a2.5 2.5 0 1 1 0 5h-6.54a24 24 0 1 1-46.6 2.84c-.08-4.37-3.45-7.83-7.5-7.83-3.73 0-6.89 2.94-7.42 6.83A24 24 0 0 1 40 94Zm0-4a20 20 0 1 0 0-40 20 20 0 0 0 0 40Zm82-20a20 20 0 1 1-40 0 20 20 0 0 1 40 0Z" fill="#ffafb9"/></g></g></g></g></svg>