<svg xmlns="http://www.w3.org/2000/svg" viewBox="0 0 280 280" fill="none" shape-rendering="auto"><metadata xmlns:rdf="http://www.w3.org/1999/02/22-rdf-syntax-ns#" xmlns:xsi="http://www.w3.org/2001/XMLSchema-instance" xmlns:dc="http://purl.org/dc/elements/1.1/" xmlns:dcterms="http://purl.org/dc/terms/"><rdf:RDF><rdf:Description><dc:title>Avataaars</dc:title><dc:creator>Pablo Stanley</dc:creator><dc:source xsi:type="dcterms:URI">https://avataaars.com/</dc:source><dcterms:license xsi:type="dcterms:URI">https://avataaars.com/</dcterms:license><dc:rights>Remix of „Avataaars” (https://avataaars.com/) by „Pablo Stanley”, licensed under „Free for personal and commercial use” (https://avataaars.com/)</dc:rights></rdf:Description></rdf:RDF></metadata><mask id="viewboxMask"><rect width="280" height="280" rx="0" ry="0" x="0" y="0" fill="#fff" /></mask><g mask="url(#viewboxMask)"><g transform="translate(8)"><path d="M132 36a56 56 0 0 0-56 56v6.17A12 12 0 0 0 66 110v14a12 12 0 0 0 10.3 11.88 56.04 56.04 0 0 0 31.7 44.73v18.4h-4a72 72 0 0 0-72 72v9h200v-9a72 72 0 0 0-72-72h-4v-18.39a56.04 56.04 0 0 0 31.7-44.73A12 12 0 0 0 198 124v-14a12 12 0 0 0-10-11.83V92a56 56 0 0 0-56-56Z" fill="#614335"/><path d="M108 180.61v8a55.79 55.79 0 0 0 24 5.39c8.59 0 16.73-1.93 24-5.39v-8a55.79 55.79 0 0 1-24 5.39 55.79 55.79 0 0 1-24-5.39Z" fill="#000" fill-opacity=".1"/><g transform="translate(0 170)"><path d="M92.68 29.94A72.02 72.02 0 0 0 32 101.05V110h200v-8.95a72.02 72.02 0 0 0-60.68-71.11 23.87 23.87 0 0 1-7.56 13.6l-29.08 26.23a4 4 0 0 1-5.36 0l-29.08-26.23a23.87 23.87 0 0 1-7.56-13.6Z" fill="#ff5c5c"/></g><g transform="translate(78 134)"><path d="M40 16c0 5.37 6.16 9 14 9s14-3.63 14-9c0-1.1-.95-2-2-2-1.3 0-1.87.9-2 2-1.24 2.94-4.32 4.72-10 5-5.68-.28-8.76-2.06-10-5-.13-1.1-.7-2-2-2-1.05 0-2 .9-2 2Z" fill="#000" fill-opacity=".6"/></g><g transform="translate(104 122)"><path fill-rule="evenodd" clip-rule="evenodd" d="M16 8c0 4.42 5.37 8 12 8s12-3.58 12-8" fill="#000" fill-opacity=".16"/></g><g transform="translate(76 90)"><path d="M16.16 27.55c1.85 3.8 6 6.45 10.84 6.45 4.81 0 8.96-2.63 10.82-6.4.55-1.13-.24-2.05-1.03-1.37a15.05 15.05 0 0 1-9.8 3.43c-3.73 0-7.12-1.24-9.55-3.23-.9-.73-1.82.01-1.28 1.12ZM74.16 27.55c1.85 3.8 6 6.45 10.84 6.45 4.81 0 8.96-2.63 10.82-6.4.55-1.13-.24-2.05-1.03-1.37a15.05 15.05 0 0 1-9.8 3.43c-3.74 0-7.13-1.24-9.56-3.23-.9-.73-1.82.01-1.28 1.12Z" fill-rule="evenodd" clip-rule="evenodd" fill="#000" fill-opacity=".6"/></g><g transform="translate(76 82)"><path d="m22.77 1.58.9-.4C28.93-.91 36.88-.03 41.73 2.3c.57.27.18 1.15-.4 1.1-14.92-1.14-24.96 8.15-28.37 14.45-.1.18-.41.2-.49.03-2.3-5.32 4.45-13.98 10.3-16.3ZM87 12.07c5.75.77 14.74 5.8 13.99 11.6-.03.2-.31.26-.44.1-2.49-3.2-21.71-7.87-28.71-6.9-.64.1-1.07-.57-.63-.98 3.75-3.54 10.62-4.52 15.78-3.82Z" fill-rule="evenodd" clip-rule="evenodd" fill="#000" fill-opacity=".6"/></g><g transform="translate(-1)"><path fill-rule="evenodd" clip-rule="evenodd" d="M183.68 38.95c5.4-4.95 6.7-14.99 3.64-21.5-3.77-8-11.42-9-18.75-5.48-6.9 3.31-13.06 4.42-20.62 2.81-7.26-1.54-14.14-4.26-21.65-4.7-12.32-.74-24.3 3.83-32.7 13.05a35.75 35.75 0 0 0-4.11 5.8c-.98 1.63-2.08 3.38-2.5 5.26-.2.9.18 3.1-.27 3.83-.48.8-2.3 1.52-3.07 2.1a25.02 25.02 0 0 0-4.18 4.05c-2.66 3.22-4.13 6.59-5.37 10.57-4.1 13.25-4.45 29 .86 42 .7 1.74 2.9 5.36 4.18 1.64.26-.73-.33-3.19-.33-3.93 0-2.72 1.5-20.73 8.05-30.82 2.13-3.28 11.97-15.58 13.98-15.68 1.07 1.7 11.88 12.51 39.94 11.24 12.66-.58 22.4-6.27 24.74-8.73 1.03 5.53 13 13.81 14.82 17.22 5.26 9.85 6.43 30.3 8.44 30.27 2.01-.04 3.45-5.24 3.87-6.23 3.07-7.38 3.6-16.64 3.26-24.56-.42-10.2-4.63-21.23-12.23-28.22Z" fill="#2c1b18"/></g><g transform="translate(49 72)"><path fill-rule="evenodd" clip-rule="evenodd" d="M65.18 77.74c2.18-1.64 15.23-2.26 17.58-3.65.73-.43 1.3-.87 1.74-1.31.44.44 1 .88 1.74 1.3 2.35 1.4 15.4 2.02 17.58 3.66 2.21 1.65 3.82 5.44 3.65 8.41-.22 3.56-4.1 12.05-13.8 13.03a12.3 12.3 0 0 0-9.17-3.87 12.3 12.3 0 0 0-9.17 3.87c-9.7-.98-13.58-9.47-13.8-13.03-.17-2.97 1.44-6.76 3.65-8.41Zm.67 17.16h.01-.01ZM144.86 56c-.39-5.97-1.58-11.85-2.63-17.71-.28-1.58-1.8-12.29-2.5-12.29-.23 9.1-1.03 18.08-2.06 27.14-.3 2.7-.63 5.42-.84 8.13-.18 2.2.13 4.85-.4 6.98-.68 2.7-4.08 5.23-6.73 6.16-6.6 2.33-12.1-7.3-17.74-10.12-7.32-3.66-19.9-4.53-27.38.24-7.64-4.77-20.22-3.9-27.54-.24C51.4 67.11 45.9 76.74 39.3 74.41c-2.65-.93-6.05-3.46-6.73-6.16-.53-2.13-.22-4.78-.4-6.98-.2-2.71-.53-5.42-.84-8.13A308.31 308.31 0 0 1 29.27 26c-.7 0-2.22 10.7-2.5 12.29-1.05 5.86-2.24 11.74-2.63 17.7-.4 6.11.07 12.18 1.33 18.17.6 2.87 1.3 5.72 2.05 8.54.83 3.15-.32 9.27.05 12.5.7 6.1 3.58 18 6.81 23.25 1.56 2.54 3.4 4.12 5.44 6.17 1.96 1.97 2.78 5.02 4.9 7.12 3.96 3.9 9.73 6.23 15.65 6.8 5.3 4.51 14.14 7.46 24.13 7.46 10 0 18.82-2.95 24.14-7.46 5.91-.57 11.68-2.9 15.63-6.8 2.13-2.1 2.95-5.15 4.91-7.12 2.05-2.05 3.88-3.63 5.44-6.17 3.23-5.25 6.1-17.15 6.8-23.26.38-3.22-.77-9.34.06-12.49.75-2.82 1.45-5.67 2.05-8.54 1.25-6 1.73-12.06 1.33-18.17Z" fill="#4a312c"/></g><g transform="translate(62 42)"></g></g></g></svg>