<svg xmlns="http://www.w3.org/2000/svg" viewBox="0 0 280 280" fill="none" shape-rendering="auto"><metadata xmlns:rdf="http://www.w3.org/1999/02/22-rdf-syntax-ns#" xmlns:xsi="http://www.w3.org/2001/XMLSchema-instance" xmlns:dc="http://purl.org/dc/elements/1.1/" xmlns:dcterms="http://purl.org/dc/terms/"><rdf:RDF><rdf:Description><dc:title>Avataaars</dc:title><dc:creator>Pablo Stanley</dc:creator><dc:source xsi:type="dcterms:URI">https://avataaars.com/</dc:source><dcterms:license xsi:type="dcterms:URI">https://avataaars.com/</dcterms:license><dc:rights>Remix of „Avataaars” (https://avataaars.com/) by „Pablo Stanley”, licensed under „Free for personal and commercial use” (https://avataaars.com/)</dc:rights></rdf:Description></rdf:RDF></metadata><mask id="viewboxMask"><rect width="280" height="280" rx="0" ry="0" x="0" y="0" fill="#fff" /></mask><g mask="url(#viewboxMask)"><g transform="translate(8)"><path d="M132 36a56 56 0 0 0-56 56v6.17A12 12 0 0 0 66 110v14a12 12 0 0 0 10.3 11.88 56.04 56.04 0 0 0 31.7 44.73v18.4h-4a72 72 0 0 0-72 72v9h200v-9a72 72 0 0 0-72-72h-4v-18.39a56.04 56.04 0 0 0 31.7-44.73A12 12 0 0 0 198 124v-14a12 12 0 0 0-10-11.83V92a56 56 0 0 0-56-56Z" fill="#ae5d29"/><path d="M108 180.61v8a55.79 55.79 0 0 0 24 5.39c8.59 0 16.73-1.93 24-5.39v-8a55.79 55.79 0 0 1-24 5.39 55.79 55.79 0 0 1-24-5.39Z" fill="#000" fill-opacity=".1"/><g transform="translate(0 170)"><path d="M132.5 54C151 54 166 44.37 166 32.5c0-1.1-.13-2.18-.38-3.23A72 72 0 0 1 232 101.05V110H32v-8.95A72 72 0 0 1 99.4 29.2a14.1 14.1 0 0 0-.4 3.3C99 44.37 114 54 132.5 54Z" fill="#65c9ff"/><g transform="translate(77 58)"><path d="M63.78 29.74a320.2 320.2 0 0 1-7.34 7.82c1-3.56 1.74-7.58 3.2-10.96.43-.96.1-1.08.94-1.5.6-.3 2.07.05 2.8.07 1.56.04 3.15.19 4.7-.05-1.45 1.52-2.9 3.05-4.3 4.62ZM48.52 33.8c-2.7-3.28-5.39-6.57-8.66-9.32 1.29.14 2.7-.04 3.96.2 1.94.4 1.83 1 2.82 2.97a99.3 99.3 0 0 1 4.05 8.82c-.71-.9-1.45-1.79-2.17-2.67Zm-9.1-12.53c.96-1.58 1.14-2.98 2.92-3.78 2.06-.94 5.3-.74 7.49-.92-1.37 1.52-3.04 3.1-3.6 5.12a9.54 9.54 0 0 0-3.68-4.17c-.21-.1 1.16 4.55 1.34 4.87-1.72-.1-3.52-.4-5.22-.09l.75-1.03Zm16.4-5.01c1.6.03 3.17.16 4.74.42-1.26 1.67-1.64 3.63-2.1 5.63-.47-2.26-2.2-4.36-3.73-6.05h1.1Zm-3.5 1.07c.24-.16 4.46 5.09 5.07 5.56-3.31 0-6.62-.17-9.92-.32 1.9-1.48 3.02-3.68 4.86-5.24Zm2.7 17.1c-.4 1.35-.78 2.7-1.22 4.05-1.56-4.74-3.86-9.2-6.01-13.68 3.34.09 6.68.21 10.02.26-.82 3.16-1.87 6.24-2.8 9.37Zm7.22-17.46a36.24 36.24 0 0 1 3.87 4.44l1.26 1.65c-2.23-.23-4.54-.13-6.78-.15.5-2.06 1.1-4.01.58-6.13l1.07.19Zm7.65 5.61c-2.16-2.67-4.37-7.26-7.86-8.07-3.48-.8-7.55-.45-11.08-.22-3.07.2-8.08-.2-10.8 1.59-1.39.92-2.42 3-2.9 4.55-.44 1.4.27 2.28-1.25 2.28-.1 0 2.5 3.68 2.81 3.97a78.06 78.06 0 0 1 6.46 6.6c2.83 3.37 5.4 8.33 9.14 9.73-.68-.34 2.8-2.97 3.21-3.42 2.12-2.29 4.25-4.55 6.38-6.83 1.94-2.07 4.05-4.03 5.93-6.15 1.43-1.62 1.44-2.17-.04-4.02ZM36 14c.04.01-.9-2.05-.83-1.92a6.35 6.35 0 0 0-1.73-1.73C32.7 9.85 29.13 9.25 29 9c1.5 2.65 4.17 4.13 7 5ZM51.36 9.2c.17.65.43 1.25.79 1.8.07.08.86-4.18.85-4.55C52.99 5.83 52.6 2 51.8 2c-1.33 0-.67 6.47-.45 7.2ZM77.97 7c-3 0-9.68 5.85-8.9 9a3.35 3.35 0 0 0 .4-.33c1.27-1.02 2.72-2.02 4-3.2.9-.85 1.98-1.61 2.8-2.54.1-.1 2-2.93 1.7-2.93Z" fill-rule="evenodd" clip-rule="evenodd" fill="#fff"/></g></g><g transform="translate(78 134)"><path fill-rule="evenodd" clip-rule="evenodd" d="M40.06 27.72C40.7 20.7 46.7 16 54 16c7.34 0 13.36 4.75 13.95 11.85.03.38-.87.67-1.32.45-5.54-2.77-9.75-4.16-12.63-4.16-2.84 0-7 1.36-12.45 4.07-.5.25-1.53-.07-1.5-.49Z" fill="#000" fill-opacity=".7"/></g><g transform="translate(104 122)"><path fill-rule="evenodd" clip-rule="evenodd" d="M16 8c0 4.42 5.37 8 12 8s12-3.58 12-8" fill="#000" fill-opacity=".16"/></g><g transform="translate(76 90)"><path d="M36 22a6 6 0 1 1-12 0 6 6 0 0 1 12 0ZM88 22a6 6 0 1 1-12 0 6 6 0 0 1 12 0Z" fill="#000" fill-opacity=".6"/></g><g transform="translate(76 82)"><path d="M15.61 15.18c4.24-5.76 6.88-5.48 13.31-.62l.67.5C34.41 18.73 36.7 20 40 20a2 2 0 1 0 0-4c-2.07 0-3.9-1.02-7.99-4.12l-.68-.52C27.57 8.53 25.37 7.3 22.63 7c-3.68-.4-7.05 1.48-10.24 5.83a2 2 0 1 0 3.22 2.36ZM96.39 15.18c-4.24-5.76-6.88-5.48-13.31-.62l-.67.5C77.58 18.73 75.29 20 72 20a2 2 0 1 1 0-4c2.07 0 3.9-1.02 7.99-4.12l.68-.52c3.76-2.83 5.96-4.07 8.7-4.37 3.68-.4 7.05 1.48 10.24 5.83a2 2 0 1 1-3.22 2.36Z" fill="#000" fill-opacity=".6"/></g><g transform="translate(-1)"><path d="M197 168h-2v56.06a9 9 0 1 0 2 0V168ZM71 176h-2v56.06a9 9 0 1 0 2 0V176Z" fill="#F4F4F4"/><circle cx="133" cy="20" r="20" fill="#F4F4F4"/><path d="M93.45 77.53h79.1c6.08 0 9.82 2.93 9.82 9V166c0 30.46 22.63 30.41 22.63 10.92v-73.86C205 68.8 187.77 21 133 21c-54.77 0-72 47.8-72 82.05v73.86c0 19.5 22.63 19.54 22.63-10.92V86.53c0-6.07 3.73-9 9.82-9Z" fill="#ffdeb5"/><path d="M198.67 67H67.33C76.42 42.5 96.26 21 133 21s56.58 21.5 65.67 46Z" fill="#000" fill-opacity=".2"/><path d="M91.2 33.73 102.5 50 115 32H93.66c-.83.56-1.65 1.14-2.46 1.73ZM172.34 32H152l12.5 18 10.95-15.77c-1-.77-2.04-1.51-3.11-2.23ZM133.5 50 121 32h25l-12.5 18Z" fill="#fff" fill-opacity=".5"/><path d="M99 59 86.5 41 74 59h25ZM130 59l-12.5-18L105 59h25ZM148.5 41 161 59h-25l12.5-18ZM192 59l-12.5-18L167 59h25Z" fill="#000" fill-opacity=".5"/></g><g transform="translate(49 72)"><path d="M57.55 69.68a31.8 31.8 0 0 1 4.84-2.55C67.58 65.15 77.2 65.71 84 69.3c6.8-3.59 16.42-4.15 21.61-2.17 1.64.63 3.22 1.57 4.84 2.55 4.13 2.47 8.55 5.12 14.91 3.15.37-.12.73.22.62.58-1.37 4.5-9 7.6-11.6 7.7-6.2.24-11.75-2.26-17.13-4.69-4.44-2-8.77-3.96-13.25-4.26-4.48.3-8.8 2.26-13.25 4.26-5.38 2.43-10.92 4.93-17.13 4.69-2.6-.1-10.23-3.2-11.6-7.7-.11-.36.25-.7.62-.58 6.36 1.97 10.78-.68 14.9-3.15Z" fill="#e8e1e1"/></g><g transform="translate(62 42)"></g></g></g></svg>