<svg xmlns="http://www.w3.org/2000/svg" viewBox="0 0 280 280" fill="none" shape-rendering="auto"><metadata xmlns:rdf="http://www.w3.org/1999/02/22-rdf-syntax-ns#" xmlns:xsi="http://www.w3.org/2001/XMLSchema-instance" xmlns:dc="http://purl.org/dc/elements/1.1/" xmlns:dcterms="http://purl.org/dc/terms/"><rdf:RDF><rdf:Description><dc:title>Avataaars</dc:title><dc:creator>Pablo Stanley</dc:creator><dc:source xsi:type="dcterms:URI">https://avataaars.com/</dc:source><dcterms:license xsi:type="dcterms:URI">https://avataaars.com/</dcterms:license><dc:rights>Remix of „Avataaars” (https://avataaars.com/) by „Pablo Stanley”, licensed under „Free for personal and commercial use” (https://avataaars.com/)</dc:rights></rdf:Description></rdf:RDF></metadata><mask id="viewboxMask"><rect width="280" height="280" rx="0" ry="0" x="0" y="0" fill="#fff" /></mask><g mask="url(#viewboxMask)"><g transform="translate(8)"><path d="M132 36a56 56 0 0 0-56 56v6.17A12 12 0 0 0 66 110v14a12 12 0 0 0 10.3 11.88 56.04 56.04 0 0 0 31.7 44.73v18.4h-4a72 72 0 0 0-72 72v9h200v-9a72 72 0 0 0-72-72h-4v-18.39a56.04 56.04 0 0 0 31.7-44.73A12 12 0 0 0 198 124v-14a12 12 0 0 0-10-11.83V92a56 56 0 0 0-56-56Z" fill="#ae5d29"/><path d="M108 180.61v8a55.79 55.79 0 0 0 24 5.39c8.59 0 16.73-1.93 24-5.39v-8a55.79 55.79 0 0 1-24 5.39 55.79 55.79 0 0 1-24-5.39Z" fill="#000" fill-opacity=".1"/><g transform="translate(0 170)"><path d="M132.5 51.83c18.5 0 33.5-9.62 33.5-21.48 0-.36-.01-.7-.04-1.06A72 72 0 0 1 232 101.04V110H32v-8.95a72 72 0 0 1 67.05-71.83c-.03.37-.05.75-.05 1.13 0 11.86 15 21.48 33.5 21.48Z" fill="#E6E6E6"/><path d="M132.5 58.76c21.89 0 39.63-12.05 39.63-26.91 0-.6-.02-1.2-.08-1.8-2-.33-4.03-.59-6.1-.76.04.35.05.7.05 1.06 0 11.86-15 21.48-33.5 21.48S99 42.2 99 30.35c0-.38.02-.76.05-1.13-2.06.14-4.08.36-6.08.67-.07.65-.1 1.3-.1 1.96 0 14.86 17.74 26.91 39.63 26.91Z" fill="#000" fill-opacity=".16"/><path d="M100.78 29.12 101 28c-2.96.05-6 1-6 1l-.42.66A72.01 72.01 0 0 0 32 101.06V110h74s-10.7-51.56-5.24-80.8l.02-.08ZM158 110s11-53 5-82c2.96.05 6 1 6 1l.42.66a72.01 72.01 0 0 1 62.58 71.4V110h-74Z" fill="#b1e2ff"/><path d="M101 28c-6 29 5 82 5 82H90L76 74l6-9-6-6 19-30s3.04-.95 6-1ZM163 28c6 29-5 82-5 82h16l14-36-6-9 6-6-19-30s-3.04-.95-6-1Z" fill-rule="evenodd" clip-rule="evenodd" fill="#000" fill-opacity=".15"/><path d="m183.42 85.77.87-2.24 6.27-4.7a4 4 0 0 1 4.85.05l6.6 5.12-18.59 1.77Z" fill="#E6E6E6"/></g><g transform="translate(78 134)"><path d="M40 16c0 5.37 6.16 9 14 9s14-3.63 14-9c0-1.1-.95-2-2-2-1.3 0-1.87.9-2 2-1.24 2.94-4.32 4.72-10 5-5.68-.28-8.76-2.06-10-5-.13-1.1-.7-2-2-2-1.05 0-2 .9-2 2Z" fill="#000" fill-opacity=".6"/></g><g transform="translate(104 122)"><path fill-rule="evenodd" clip-rule="evenodd" d="M16 8c0 4.42 5.37 8 12 8s12-3.58 12-8" fill="#000" fill-opacity=".16"/></g><g transform="translate(76 90)"><g fill="#000" fill-opacity=".6"><path d="M36 22a6 6 0 1 1-12 0 6 6 0 0 1 12 0Z"/><path fill-rule="evenodd" clip-rule="evenodd" d="M70.6 24.96c1.59-3.92 5.55-6.86 10.37-7.2 4.8-.33 9.12 2 11.24 5.64.63 1.09-.1 2.06-.93 1.43-2.6-1.93-6.15-3-10-2.73A15.13 15.13 0 0 0 71.95 26c-.84.78-1.81.1-1.35-1.04Z"/></g></g><g transform="translate(76 82)"><path d="m31.23 20.42-.9.4c-5.25 2.09-13.2 1.21-18.05-1.12-.57-.27-.18-1.15.4-1.1 14.92 1.14 24.96-8.15 28.37-14.45.1-.18.41-.2.49-.03 2.3 5.32-4.45 13.98-10.3 16.3ZM80.77 20.42l.9.4c5.25 2.09 13.2 1.21 18.05-1.12.57-.27.18-1.15-.4-1.1-14.92 1.14-24.96-8.15-28.37-14.45-.1-.18-.41-.2-.49-.03-2.3 5.32 4.45 13.98 10.3 16.3Z" fill-rule="evenodd" clip-rule="evenodd" fill="#000" fill-opacity=".6"/></g><g transform="translate(-1)"><path fill-rule="evenodd" clip-rule="evenodd" d="M90.91 55.36h84.18c18.24-10.53 21.67-29.2 8.76-45.43-3.21-4.04-8.76 11.75-25.82 12.72-17.06.98-15.42-6.3-33.57-3.58-18.15 2.73-16.15 17.3-28 20.8-11.84 3.5-5.55 15.5-5.55 15.5Z" fill="#724133"/></g><g transform="translate(49 72)"><path d="M84 66.94c-2.5-3.34-12.27-4.75-19.28-3.48-9.65 1.76-13.74 12.3-12.5 14.22.77 1.2 2.48.8 4.26.38.8-.2 1.64-.38 2.4-.43 1.48-.09 3.34.22 5.44.57 4.98.82 11.37 1.88 17.63-1.51A6.04 6.04 0 0 0 84 74.84a6.04 6.04 0 0 0 2.05 1.85c6.25 3.39 12.64 2.33 17.62 1.5 2.1-.34 3.96-.65 5.45-.56.76.05 1.59.24 2.4.43 1.78.41 3.49.81 4.26-.38 1.24-1.91-2.85-12.46-12.5-14.22-7.02-1.27-16.78.14-19.28 3.48Z" fill="#a55728"/></g><g transform="translate(62 42)"></g></g></g></svg>